<?xml version="1.0" encoding="UTF-8"?>
<svg width="24px" height="24px" viewBox="0 0 24 24" version="1.1" xmlns="http://www.w3.org/2000/svg">
    <path d="M18.92,6.01C18.72,5.42,18.16,5,17.5,5h-11C5.84,5,5.29,5.42,5.08,6.01L3,12v8c0,0.55,0.45,1,1,1h1c0.55,0,1-0.45,1-1v-1 h12v1c0,0.55,0.45,1,1,1h1c0.55,0,1-0.45,1-1v-8L18.92,6.01z M6.85,7h10.29l1.04,3H5.81L6.85,7z M19,17H5v-5h14V17z M7.5,14.5 c0.83,0,1.5-0.67,1.5-1.5S8.33,11.5,7.5,11.5S6,12.17,6,13S6.67,14.5,7.5,14.5z M16.5,14.5c0.83,0,1.5-0.67,1.5-1.5 s-0.67-1.5-1.5-1.5s-1.5,0.67-1.5,1.5S15.67,14.5,16.5,14.5z"/>
</svg>
