<?xml version="1.0" encoding="UTF-8"?>
<svg width="24px" height="24px" viewBox="0 0 24 24" version="1.1" xmlns="http://www.w3.org/2000/svg">
    <path d="M13,4h-2V2h2V4z M21,14v-2h2v2H21z M19,10h2v2h-2V10z M19,6h2v2h-2V6z M19,2h2v2h-2V2z M17,2h2v2h-2V2z M15,2h2v2h-2V2z M11,2h2v2h-2V2z M9,2h2v2H9V2z M7,2h2v2H7V2z M5,2h2v2H5V2z M1,14h2v2H1V14z M1,10h2v2H1V10z M1,6h2v2H1V6z M1,2h2v2H1V2z M3,22H1v-2h2V22z M5,22H3v-2h2V22z M7,22H5v-2h2V22z M9,22H7v-2h2V22z M11,22H9v-2h2V22z M13,22h-2v-2h2V22z M15,22h-2v-2h2V22z M17,22h-2v-2h2V22z M19,22h-2v-2h2V22z M21,22h-2v-2h2V22z M23,22h-2v-2h2V22z M23,20h-2v-2h2V20z M23,18h-2v-2h2V18z M23,16h-2v-2h2V16z M13,20h-2v-2h2V20z M13,16h-2v-2h2V16z M13,12h-2v-2h2V12z M13,8h-2V6h2V8z"/>
</svg>
