<?xml version="1.0" encoding="UTF-8"?>
<svg width="500" height="500" viewBox="0 0 500 500" xmlns="http://www.w3.org/2000/svg">
  <rect width="500" height="500" fill="#A4CE4C"/>
  <!-- Car Body -->
  <path d="M100 300 L150 300 C150 300 170 220 250 220 C330 220 350 300 350 300 L400 300 L420 340 L420 380 L400 380 L400 360 L100 360 L100 380 L80 380 L80 340 L100 300" fill="#333"/>
  <!-- Windows -->
  <path d="M180 240 L220 240 L220 280 L180 280 Z" fill="#666"/>
  <path d="M280 240 L320 240 L320 280 L280 280 Z" fill="#666"/>
  <!-- Wheels -->
  <circle cx="150" cy="340" r="30" fill="#111"/>
  <circle cx="350" cy="340" r="30" fill="#111"/>
  <!-- Headlights -->
  <rect x="120" y="290" width="20" height="10" fill="#FFF"/>
  <rect x="360" y="290" width="20" height="10" fill="#FFF"/>
</svg>
